<svg width="24" height="24" viewBox="0 0 24 24" fill="none" xmlns="http://www.w3.org/2000/svg">
<path d="M13.8499 3.40418L13.8503 3.40446L19.6101 7.43436C20.039 7.73455 20.4592 8.2387 20.7729 8.83953C21.0865 9.44035 21.2602 10.0738 21.2602 10.5999V17.3799C21.2602 19.5157 19.526 21.2499 17.3902 21.2499H6.61023C4.47656 21.2499 2.74023 19.5078 2.74023 17.3699V10.4699C2.74023 9.98328 2.89706 9.38217 3.1831 8.80123C3.46893 8.22071 3.85184 7.72526 4.24151 7.42131L4.24167 7.42119L9.2496 3.5128C9.24994 3.51254 9.25027 3.51228 9.25061 3.51202C10.5009 2.54409 12.5495 2.49306 13.8499 3.40418Z" stroke="#959799" stroke-width="1.5"/>
<path d="M12 18.75C11.59 18.75 11.25 18.41 11.25 18V15C11.25 14.59 11.59 14.25 12 14.25C12.41 14.25 12.75 14.59 12.75 15V18C12.75 18.41 12.41 18.75 12 18.75Z" fill="#959799"/>
</svg>
